<svg width="25" height="25" viewBox="0 0 25 25" fill="none" xmlns="http://www.w3.org/2000/svg">
<path d="M25 4.08936C25 4.62646 24.8983 5.1473 24.6948 5.65186C24.4914 6.15641 24.1943 6.604 23.8037 6.99463L7.72705 23.0713L0 25L1.92871 17.2729L18.0054 1.19629C18.396 0.805664 18.8436 0.508626 19.3481 0.305176C19.8527 0.101725 20.3735 0 20.9106 0C21.4722 0 22.0011 0.105794 22.4976 0.317383C22.994 0.528971 23.4253 0.82194 23.7915 1.19629C24.1577 1.57064 24.4507 2.00602 24.6704 2.50244C24.8901 2.99886 25 3.52783 25 4.08936ZM3.97949 17.4316C4.84212 17.7165 5.58268 18.1681 6.20117 18.7866C6.81966 19.4051 7.27539 20.1497 7.56836 21.0205L20.7642 7.8125L17.1875 4.23584L3.97949 17.4316ZM2.14844 22.8516L6.16455 21.8506C6.08317 21.4762 5.95296 21.1222 5.77393 20.7886C5.59489 20.4549 5.37109 20.1579 5.10254 19.8975C4.83398 19.637 4.53695 19.4173 4.21143 19.2383C3.8859 19.0592 3.5319 18.925 3.14941 18.8354L2.14844 22.8516ZM21.875 6.70166C22.0785 6.49821 22.2738 6.30697 22.4609 6.12793C22.6481 5.94889 22.8149 5.76172 22.9614 5.56641C23.1079 5.37109 23.2218 5.15544 23.3032 4.91943C23.3846 4.68343 23.4294 4.41081 23.4375 4.10156C23.4375 3.75163 23.3724 3.42611 23.2422 3.125C23.112 2.82389 22.9289 2.55534 22.6929 2.31934C22.4569 2.08333 22.1883 1.90023 21.8872 1.77002C21.5861 1.63981 21.2565 1.57064 20.8984 1.5625C20.5892 1.5625 20.3206 1.60319 20.0928 1.68457C19.8649 1.76595 19.6493 1.88395 19.4458 2.03857C19.2424 2.1932 19.0511 2.36003 18.8721 2.53906C18.693 2.7181 18.5018 2.91341 18.2983 3.125L21.875 6.70166Z" fill="white"/>
</svg>
