<svg width="107" height="136" viewBox="0 0 107 136" fill="none" xmlns="http://www.w3.org/2000/svg">
<g clip-path="url(#clip0_118_228)">
<path d="M57.3309 37.2763C56.6549 37.0509 55.8663 36.9383 55.0777 36.9383C59.4715 38.5155 62.626 41.4447 64.4285 45.8385C66.2311 50.1196 66.3438 54.4007 64.7665 58.9072C64.2032 60.5971 63.3019 62.1743 62.288 63.6389C63.8652 62.287 64.9919 60.4844 65.7805 58.2312C66.4564 56.2033 66.7944 54.4007 66.7944 52.8235C66.7944 50.4576 66.3438 48.0917 65.3298 45.6132C64.3159 43.2473 62.8513 41.2194 61.1614 39.7548C59.6968 38.5155 58.4575 37.7269 57.3309 37.2763ZM48.5434 65.8921L48.318 65.6668C44.9382 63.4136 42.685 60.4844 41.5584 56.8793C40.4318 53.2741 40.5444 49.5563 41.8964 45.7258C42.347 44.3739 42.9103 43.2473 43.5863 42.1207C42.685 43.2473 42.1217 43.9233 41.8964 44.1486C41.4457 44.7119 41.1077 45.6132 40.7697 46.6271C39.5305 50.1196 39.5305 53.8374 40.8824 57.7806C42.347 62.0617 44.7129 64.6529 48.0927 65.7795L48.5434 65.8921ZM68.597 56.7666C67.1324 61.0477 64.3159 64.2022 60.3728 66.1175C56.4296 68.0327 52.2612 68.258 47.9801 66.7934C43.8116 65.3288 40.7697 62.7376 38.8545 59.1325C36.9393 55.5273 36.714 51.5842 38.1785 47.3031C39.3052 43.9233 41.5584 41.4447 44.7129 39.7548C47.8674 38.0649 51.1346 37.8396 54.5144 38.9662C56.2043 39.5295 57.5562 40.4308 58.7955 41.67C60.1474 42.9093 60.9361 44.3739 61.1614 46.0638C61.1614 46.1765 61.1614 46.2891 61.1614 46.4018C61.0487 46.6271 60.9361 46.7398 60.7107 46.7398C60.4854 46.6271 60.3728 46.5145 60.2601 46.2891C60.1474 46.0638 60.1474 45.8385 60.1474 45.6132C59.8095 44.5992 58.9082 43.4726 57.5562 42.2333C56.317 41.1067 55.0777 40.4308 53.9511 39.9801C51.2472 38.9662 48.8813 39.1915 46.8534 40.4308C45.0509 41.5574 43.5863 43.5853 42.5723 46.2891C41.2204 50.007 41.4457 54.0627 43.1356 58.2312C44.8255 62.625 47.6421 65.4415 51.3599 66.7934C52.1485 67.0188 53.1625 67.1314 54.4017 67.0188C55.5283 67.0188 56.5423 66.7934 57.4436 66.5681C58.9082 66.1175 60.1474 65.1035 61.4994 63.4136C62.5133 62.0617 63.4146 60.5971 63.9779 58.9072C64.5412 57.4426 64.7665 55.8653 64.8792 54.4007C65.3298 47.5284 62.964 42.346 57.6689 38.9662C56.7676 38.4029 55.979 37.9522 55.303 37.7269C52.3738 36.713 49.7826 36.9383 47.5294 38.4029C47.4167 38.4029 47.3041 38.5155 47.1914 38.6282C47.0788 38.6282 46.8534 38.5155 46.6281 38.1776C46.8534 37.7269 47.3041 37.5016 47.7547 37.2763C48.318 37.0509 48.7687 36.9383 49.332 36.713C52.2612 35.8117 55.4157 35.8117 58.6828 37.0509C62.8513 38.5155 65.8931 41.1067 67.8084 44.9372C69.8363 48.655 70.0616 52.5982 68.597 56.7666Z" fill="white"/>
<path d="M50.3456 60.2593C50.6836 60.3719 51.0216 60.4846 51.3596 60.5972C49.4443 59.5833 48.0924 58.1187 47.4164 55.8655C46.8531 53.7249 46.9658 51.697 47.9797 49.7818C48.3177 48.9932 48.7684 48.3172 49.4443 47.7539C48.6557 48.3172 47.9797 49.1058 47.5291 50.1198C47.0784 51.0211 46.8531 51.8097 46.7405 52.5983C46.6278 53.7249 46.7405 54.8515 47.0784 55.9781C47.4164 57.2174 47.9797 58.1187 48.7684 58.9073C49.219 59.4706 49.7823 59.9213 50.3456 60.2593ZM55.9787 47.3033L56.0913 47.4159C57.5559 48.6552 58.4572 50.1198 58.7952 51.9224C59.1332 53.6123 58.9078 55.4148 58.0065 57.1048C57.6686 57.6681 57.3306 58.2314 56.9926 58.682C57.4432 58.2314 57.7812 57.8934 57.8939 57.7807C58.1192 57.5554 58.3445 57.2174 58.5699 56.6541C59.3585 55.0769 59.5838 53.3869 59.1332 51.4717C58.6825 49.4438 57.6686 47.9792 56.204 47.3033H55.9787ZM46.0645 50.4578C46.9658 48.5425 48.4304 47.1906 50.4583 46.5146C52.3735 45.8387 54.4014 45.9513 56.3166 46.8526C58.2319 47.7539 59.4711 49.1058 60.1471 50.9084C60.8231 52.711 60.7104 54.6262 59.8091 56.4288C59.0205 57.8934 57.8939 59.02 56.3166 59.5833C54.7394 60.1466 53.1621 60.1466 51.6975 59.358C50.9089 59.02 50.3456 58.4567 49.895 57.8934C49.3317 57.2174 49.1063 56.5414 48.9937 55.7528V55.6402C49.1063 55.5275 49.1063 55.5275 49.219 55.5275C49.3317 55.5275 49.3317 55.6402 49.4443 55.7528C49.4443 55.8655 49.4443 55.9781 49.4443 56.0908C49.557 56.6541 49.895 57.2174 50.4583 57.7807C51.0216 58.344 51.4722 58.7947 52.0355 59.02C53.2748 59.5833 54.4014 59.696 55.4153 59.2453C56.3166 58.7947 57.1053 58.006 57.6686 56.7668C58.4572 55.0769 58.6825 53.1616 58.1192 51.1337C57.5559 48.9932 56.4293 47.5286 54.7394 46.6273C54.4014 46.5146 53.9508 46.402 53.2748 46.2893C52.7115 46.2893 52.2608 46.2893 51.8102 46.2893C51.1342 46.402 50.4583 46.8526 49.7823 47.5286C49.219 48.0919 48.7684 48.7678 48.4304 49.5565C48.0924 50.2324 47.8671 50.9084 47.7544 51.5844C47.1911 54.7389 47.9797 57.3301 50.2329 59.2453C50.6836 59.5833 51.0216 59.8086 51.2469 59.9213C52.5988 60.5972 53.7254 60.5972 54.852 60.0339C54.852 60.0339 54.9647 60.0339 54.9647 59.9213C55.0774 59.9213 55.0774 60.0339 55.19 60.1466C55.0774 60.3719 54.852 60.4846 54.6267 60.4846C54.4014 60.5972 54.0634 60.5972 53.8381 60.5972C52.3735 60.9352 50.9089 60.7099 49.4443 59.9213C47.5291 59.02 46.2898 57.5554 45.6138 55.7528C45.0505 54.1756 45.1632 52.373 46.0645 50.4578Z" fill="white"/>
<path d="M0.875 135.067V135.192H1H105.887H106H106.125V135.067V53.5C106.125 24.4771 82.5229 0.875 53.5 0.875C24.4771 0.875 0.875 24.4771 0.875 53.5V135.067ZM104.974 53.5V134.153H1.91363V53.5C1.91363 25.0663 25.1779 2.02629 53.5 2.02629C81.8217 2.02629 104.974 25.066 104.974 53.5Z" fill="white" stroke="white" stroke-width="0.25"/>
<path d="M14.2939 78.3979V53.4999C14.2939 31.869 31.869 14.2939 53.4999 14.2939C75.1308 14.2939 92.7059 31.869 92.7059 53.4999V78.5106H93.4945V53.4999C93.4945 31.4183 75.5814 13.3926 53.4999 13.3926C31.4183 13.3926 13.3926 31.4183 13.3926 53.4999V78.5106H14.2939V78.3979Z" fill="white" stroke="white" stroke-width="0.5"/>
<path d="M92.7059 98.6777V121.886L14.2939 121.773V98.6777H13.3926V122.675H93.4945V98.6777H92.7059Z" fill="white" stroke="white" stroke-width="0.5"/>
<path d="M9.78742 82.6797L5.05566 94.1711H7.08356L8.54815 90.566H12.266L13.7306 94.1711H15.8711L11.0267 82.6797H9.78742ZM11.4773 88.7634H9.22412L10.3507 86.0595L11.4773 88.7634Z" fill="white"/>
<path d="M22.8559 82.6797H14.0684V84.4823H17.5608V94.1711H19.4761V84.4823H22.9686V82.6797H22.8559Z" fill="white"/>
<path d="M32.2065 82.5664L28.6014 90.2273L25.4469 82.5664H24.0949L22.1797 94.1705H24.0949L25.1089 87.0728L27.8127 93.6072H29.052L32.2065 86.9602L33.2205 94.1705H35.1357L33.4458 82.5664H32.2065Z" fill="white"/>
<path d="M41.6702 82.5664C40.0929 82.5664 38.741 83.1297 37.6144 84.2563C36.6004 85.3829 36.0371 86.8475 36.0371 88.4248C36.0371 90.1147 36.6004 91.4666 37.6144 92.5932C38.6283 93.7198 39.9802 94.2831 41.6702 94.2831C43.2474 94.2831 44.5993 93.7198 45.726 92.5932C46.7399 91.4666 47.3032 90.002 47.3032 88.4248C47.3032 86.7349 46.7399 85.3829 45.726 84.2563C44.712 83.1297 43.3601 82.5664 41.6702 82.5664ZM44.374 91.354C43.6981 92.1426 42.7968 92.4806 41.7828 92.4806C40.7689 92.4806 39.8676 92.1426 39.1916 91.354C38.5157 90.5653 38.1777 89.5514 38.1777 88.4248C38.1777 87.2982 38.5157 86.2842 39.1916 85.4956C39.8676 84.707 40.7689 84.369 41.7828 84.369C42.9094 84.369 43.6981 84.707 44.374 85.4956C45.05 86.2842 45.388 87.1855 45.388 88.4248C45.388 89.5514 45.05 90.5653 44.374 91.354Z" fill="white"/>
<path d="M52.261 84.369C52.8243 84.369 53.5002 84.4816 54.0635 84.8196L54.6268 85.0449L55.3028 83.355L54.7395 83.1297C53.9509 82.7917 53.0496 82.5664 52.1483 82.5664C51.1344 82.5664 50.3457 82.7917 49.7824 83.2424C49.1065 83.8057 48.7685 84.4816 48.7685 85.3829C48.7685 86.0589 48.9938 86.6222 49.3318 87.1855C49.6698 87.6361 50.1204 88.0868 50.5711 88.5374C51.0217 88.8754 51.4723 89.2134 51.923 89.5514C52.3736 89.7767 52.7116 90.1147 52.9369 90.4527C53.1623 90.678 53.2749 91.016 53.2749 91.2413C53.2749 91.6919 53.1623 91.9173 52.8243 92.1426C52.4863 92.3679 52.0356 92.4806 51.3597 92.4806C50.6837 92.4806 50.0077 92.2552 49.4444 91.9173L48.8811 91.5793L47.8672 93.1565L48.3178 93.4945C49.1065 94.0578 50.1204 94.3958 51.247 94.3958C52.3736 94.3958 53.3876 94.1705 54.0635 93.6072C54.8522 93.0439 55.1901 92.2552 55.1901 91.1286C55.1901 90.4527 54.9648 89.8894 54.6268 89.3261C54.2889 88.8754 53.8382 88.4248 53.3876 88.0868C52.9369 87.7488 52.4863 87.4108 52.0356 87.1855C51.6977 86.9602 51.3597 86.6222 51.0217 86.2842C50.7964 86.0589 50.6837 85.7209 50.6837 85.3829C50.7964 85.0449 50.7964 84.369 52.261 84.369Z" fill="white"/>
<path d="M62.7389 83.4683C62.0629 82.905 61.049 82.6797 59.9223 82.6797C59.1337 82.6797 58.3451 82.6797 57.5565 82.7923H56.9932V94.1711H58.9084V89.89H59.0211C60.2603 89.89 61.3869 89.552 62.2882 88.876C63.3022 88.2001 63.7528 87.1861 63.7528 86.0595C63.8655 84.9329 63.5275 84.0316 62.7389 83.4683ZM59.0211 84.4823C59.359 84.4823 59.5844 84.4823 59.9223 84.4823C60.5983 84.4823 61.1616 84.5949 61.4996 84.9329C61.8376 85.1582 61.9502 85.6089 61.9502 86.1722C61.9502 86.7355 61.7249 87.1861 61.1616 87.6368C60.5983 88.0874 59.9223 88.3127 59.0211 88.3127H58.9084V84.4823H59.0211Z" fill="white"/>
<path d="M72.99 87.1861H67.2443V82.6797H65.3291V94.1711H67.2443V88.9887H72.99V94.1711H74.9053V82.6797H72.99V87.1861Z" fill="white"/>
<path d="M79.4113 88.8747H83.1291V87.0721H79.4113V84.5936H83.4671V82.791H77.4961V94.2824H83.5798V92.4799H79.4113V88.8747Z" fill="white"/>
<path d="M92.3675 91.6926C92.2549 91.5799 91.9169 91.1293 91.3536 90.4533C91.0156 90.0027 90.6776 89.552 90.4523 89.214C90.7903 88.876 91.0156 88.5381 91.3536 88.2001C91.8042 87.5241 92.0296 86.8481 92.0296 86.1722C92.0296 85.0456 91.5789 84.1443 90.9029 83.581C90.1143 83.0177 89.213 82.6797 88.0864 82.6797C87.5231 82.6797 86.7345 82.6797 85.7205 82.7923H85.1572V94.1711H87.0725V90.0026C87.5231 90.0026 88.0864 90.0026 88.6497 90.0026C89.889 91.6926 90.6776 92.7065 91.0156 93.0445C91.3536 93.4951 91.8042 93.7205 92.2549 93.9458C92.7055 94.1711 93.2688 94.2838 93.9448 94.2838H94.5081V92.5939L93.9448 92.4812C93.2688 92.4812 92.8182 92.2559 92.3675 91.6926ZM87.0725 84.4823C87.4105 84.4823 87.6358 84.4823 87.9738 84.4823C88.6497 84.4823 89.213 84.5949 89.551 84.9329C89.889 85.1582 90.0017 85.6089 90.0017 86.0595C90.0017 86.6228 89.7763 87.1861 89.4383 87.5241C88.9877 88.0874 88.6497 88.0874 88.5371 88.0874C88.0864 88.0874 87.5231 88.0874 87.0725 88.0874V84.4823Z" fill="white"/>
<path d="M97.6623 92.3672V88.8747H101.38V87.0721H97.6623V84.5936H101.718V82.791H95.7471V94.2824H101.831V92.4799H97.6623V92.3672Z" fill="white"/>
<path d="M30.7422 104.535H29.5029V111.52H33.5587V110.281H30.7422V104.535Z" fill="#CE4257"/>
<path d="M39.3037 104.535H38.0645V111.52H39.3037V104.535Z" fill="#CE4257"/>
<path d="M47.1914 109.267L45.2761 104.648L45.1635 104.535H43.8115L46.7407 111.407V111.52H47.5293L50.4585 104.873L50.5712 104.535H49.2192L47.1914 109.267Z" fill="#FF7415"/>
<path d="M56.3164 104.535H55.0771V111.52H56.3164V104.535Z" fill="#FF7415"/>
<path d="M65.554 109.041L61.7236 104.535L61.6109 104.422H60.8223V111.52H62.0615V107.013L66.0047 111.52H66.906V104.535H65.554V109.041Z" fill="#0FA3B1"/>
<path d="M76.1449 107.576V110.168C75.807 110.28 75.3563 110.28 74.9057 110.28C74.2297 110.28 73.6664 110.055 73.2158 109.604C72.7651 109.154 72.5398 108.59 72.5398 107.914C72.5398 107.238 72.7651 106.675 73.1031 106.224C73.4411 105.774 74.0044 105.548 74.5677 105.548C75.131 105.548 75.807 105.661 76.3703 105.886L76.8209 105.999L77.1589 104.873L76.7082 104.76C75.9196 104.535 75.2436 104.422 74.455 104.422C73.4411 104.422 72.6524 104.76 71.9765 105.436C71.3005 106.112 71.0752 107.013 71.0752 108.027C71.0752 109.041 71.4132 109.942 72.0891 110.618C72.7651 111.294 73.6664 111.632 74.6803 111.632C75.6943 111.632 76.3703 111.407 76.9336 111.069L77.1589 110.956V107.576H76.1449Z" fill="#0FA3B1"/>
</g>
<defs>
<clipPath id="clip0_118_228">
<rect width="107" height="136" fill="white"/>
</clipPath>
</defs>
</svg>
