<svg width="17" height="17" viewBox="0 0 17 17" fill="none" xmlns="http://www.w3.org/2000/svg">
<path opacity="0.6" fill-rule="evenodd" clip-rule="evenodd" d="M13.0475 11.3864C14.0967 10.0337 14.5912 8.33213 14.4303 6.62779C14.2695 4.92345 13.4654 3.34441 12.1816 2.21189C10.8978 1.07938 9.23084 0.478474 7.51975 0.531422C5.80866 0.584371 4.18201 1.2872 2.97072 2.49692C1.75838 3.70748 1.05325 5.33476 0.999041 7.04715C0.944827 8.75954 1.5456 10.4282 2.67894 11.713C3.81228 12.9978 5.39289 13.8021 7.09866 13.9621C8.80443 14.122 10.507 13.6254 11.8594 12.5736L11.8956 12.6115L15.4648 16.1816C15.543 16.2598 15.6358 16.3218 15.7379 16.3641C15.8401 16.4064 15.9496 16.4282 16.0601 16.4282C16.1707 16.4282 16.2802 16.4064 16.3823 16.3641C16.4844 16.3218 16.5772 16.2598 16.6554 16.1816C16.7336 16.1034 16.7956 16.0106 16.8379 15.9085C16.8802 15.8064 16.902 15.6969 16.902 15.5863C16.902 15.4758 16.8802 15.3663 16.8379 15.2641C16.7956 15.162 16.7336 15.0692 16.6554 14.991L13.0853 11.4218C13.073 11.4096 13.0604 11.3978 13.0475 11.3864ZM11.3007 3.68751C11.7757 4.1549 12.1536 4.71172 12.4124 5.32585C12.6711 5.93999 12.8058 6.59928 12.8085 7.26571C12.8112 7.93214 12.6819 8.59251 12.4282 9.20873C12.1744 9.82495 11.8011 10.3848 11.3299 10.8561C10.8586 11.3273 10.2988 11.7006 9.68253 11.9544C9.06631 12.2081 8.40594 12.3374 7.73951 12.3347C7.07309 12.332 6.41379 12.1973 5.79966 11.9386C5.18552 11.6798 4.6287 11.3019 4.16132 10.8269C3.22728 9.87751 2.70623 8.59751 2.71165 7.26571C2.71707 5.93391 3.24853 4.6582 4.19027 3.71647C5.132 2.77473 6.40771 2.24327 7.73951 2.23785C9.07132 2.23242 10.3513 2.75348 11.3007 3.68751Z" fill="black"/>
</svg>
