<svg width="219" height="17" viewBox="0 0 219 17" fill="none" xmlns="http://www.w3.org/2000/svg">
<g clip-path="url(#clip0_118_409)">
<path d="M4.39982 11.04L2.33982 16H1.31982L7.33982 1.59996H7.89982L13.9398 16H12.8598L10.7998 11.04H4.39982ZM7.55982 3.19996C7.54649 3.21329 7.51982 3.29329 7.47982 3.43996C7.29315 4.01329 7.11315 4.49996 6.93982 4.89996L4.73982 10.22H10.4598L8.25982 4.91996C7.79316 3.90663 7.55982 3.33329 7.55982 3.19996Z" fill="white"/>
<path d="M18.5181 2.53997H13.6781V1.69997H24.3181V2.53997H19.4781V16H18.5181V2.53997Z" fill="white"/>
<path d="M34.0562 15.26H33.5162L29.3362 5.13996C29.0962 4.57996 28.9028 4.08663 28.7562 3.65996L28.5562 5.17996L26.9162 16H25.9362L28.2962 1.57996H28.8562L33.3162 12.18C33.5428 12.6733 33.7228 13.14 33.8562 13.58C33.8962 13.4333 34.1028 12.9733 34.4762 12.2L39.4562 1.57996H39.9962L42.1762 16H41.1762L39.6162 5.13996C39.5095 4.45996 39.4562 3.94663 39.4562 3.59996C39.4428 3.6133 39.4095 3.67996 39.3562 3.79996C39.3162 3.90663 39.2362 4.09329 39.1162 4.35996C39.0095 4.61329 38.8962 4.87996 38.7762 5.15996L34.0562 15.26Z" fill="white"/>
<path d="M47.7446 14.1C46.4246 12.6733 45.7646 10.92 45.7646 8.83996C45.7646 6.75996 46.4246 5.0133 47.7446 3.59996C49.078 2.17329 50.758 1.45996 52.7846 1.45996C54.8113 1.45996 56.4913 2.17329 57.8246 3.59996C59.158 5.0133 59.8246 6.75996 59.8246 8.83996C59.8246 10.92 59.158 12.6733 57.8246 14.1C56.4913 15.5266 54.8113 16.24 52.7846 16.24C50.758 16.24 49.078 15.5266 47.7446 14.1ZM48.4646 4.21996C47.358 5.45996 46.8046 6.99996 46.8046 8.83996C46.8046 10.68 47.358 12.2266 48.4646 13.48C49.5846 14.7333 51.0246 15.36 52.7846 15.36C54.558 15.36 55.998 14.7333 57.1046 13.48C58.2246 12.2266 58.7846 10.68 58.7846 8.83996C58.7846 6.99996 58.2246 5.45996 57.1046 4.21996C55.998 2.96663 54.558 2.33996 52.7846 2.33996C51.0113 2.33996 49.5713 2.96663 48.4646 4.21996Z" fill="white"/>
<path d="M70.9409 2.95996C69.9676 2.54663 69.0009 2.33996 68.0409 2.33996C66.0942 2.33996 65.1209 3.05996 65.1209 4.49996C65.1209 5.12663 65.3409 5.7133 65.7809 6.25996C66.2209 6.79329 66.7542 7.27329 67.3809 7.69996C68.0076 8.1133 68.6342 8.53996 69.2609 8.97996C69.8876 9.41996 70.4209 9.94663 70.8609 10.56C71.3009 11.1733 71.5209 11.84 71.5209 12.56C71.5209 13.7733 71.1142 14.6933 70.3009 15.32C69.4876 15.9333 68.3609 16.24 66.9209 16.24C65.4942 16.24 64.2742 15.8733 63.2609 15.14L63.7409 14.42C64.7009 15.0466 65.7542 15.36 66.9009 15.36C68.0476 15.36 68.9276 15.1333 69.5409 14.68C70.1542 14.2133 70.4609 13.5466 70.4609 12.68C70.4609 12.08 70.2409 11.5133 69.8009 10.98C69.3609 10.4333 68.8276 9.94663 68.2009 9.51996C67.5742 9.07996 66.9476 8.63329 66.3209 8.17996C65.6942 7.72663 65.1609 7.18663 64.7209 6.55996C64.2809 5.93329 64.0609 5.25996 64.0609 4.53996C64.0609 3.59329 64.4076 2.84663 65.1009 2.29996C65.8076 1.73996 66.7542 1.45996 67.9409 1.45996C69.1409 1.45996 70.2542 1.69996 71.2809 2.17996L70.9409 2.95996Z" fill="white"/>
<path d="M76.1984 16V1.77996C77.3051 1.67329 78.3784 1.61996 79.4184 1.61996C80.8184 1.61996 81.9384 1.94663 82.7784 2.59996C83.6317 3.25329 84.0584 4.23996 84.0584 5.55996C84.0584 6.86663 83.4784 7.94663 82.3184 8.79996C81.1717 9.63996 79.7984 10.06 78.1984 10.06C78.1317 10.06 78.0584 10.06 77.9784 10.06V9.39996C78.0317 9.39996 78.0784 9.39996 78.1184 9.39996C79.4384 9.39996 80.5851 9.0533 81.5584 8.35996C82.5317 7.66663 83.0184 6.76663 83.0184 5.65996C83.0184 4.53996 82.6784 3.7333 81.9984 3.23996C81.3184 2.73329 80.4051 2.47996 79.2584 2.47996C78.6584 2.47996 77.9584 2.50663 77.1584 2.55996V16H76.1984Z" fill="white"/>
<path d="M99.0995 16V8.83997H89.2795V16H88.3195V1.69997H89.2795V7.97997H99.0995V1.69997H100.059V16H99.0995Z" fill="white"/>
<path d="M105.831 16V1.69997H112.471V2.53997H106.791V7.79997H111.931V8.61997H106.791V15.16H112.691V16H105.831Z" fill="white"/>
<path d="M117.034 16V1.75996C118.301 1.66663 119.361 1.61996 120.214 1.61996C121.574 1.61996 122.694 1.97329 123.574 2.67996C124.454 3.3733 124.894 4.35996 124.894 5.63996C124.894 6.50663 124.641 7.31331 124.134 8.05997C123.628 8.80664 123.061 9.39996 122.434 9.83996C122.928 10.52 123.534 11.3333 124.254 12.28C124.988 13.2133 125.461 13.8 125.674 14.04C126.488 14.9066 127.408 15.4 128.434 15.52L128.414 16.16C127.601 16.1466 126.941 16.0266 126.434 15.8C125.928 15.56 125.441 15.2 124.974 14.72C124.521 14.24 123.381 12.7466 121.554 10.24C120.248 10.24 119.061 10.2 117.994 10.12V16H117.034ZM120.974 9.43996C121.561 9.43996 122.188 9.0533 122.854 8.27996C123.521 7.50663 123.854 6.61329 123.854 5.59996C123.854 4.5733 123.508 3.79996 122.814 3.27996C122.134 2.74663 121.228 2.47996 120.094 2.47996C119.494 2.47996 118.794 2.50663 117.994 2.55996V9.33996C119.061 9.40663 120.054 9.43996 120.974 9.43996Z" fill="white"/>
<path d="M130.698 16V1.69997H137.338V2.53997H131.658V7.79997H136.798V8.61997H131.658V15.16H137.558V16H130.698Z" fill="white"/>
<path d="M149.609 16V1.69997H150.569V15.12H157.149V16H149.609Z" fill="white"/>
<path d="M160.734 16V1.69997H161.694V16H160.734Z" fill="white"/>
<path d="M172.224 13.1L177.024 1.69997H178.044L171.884 16.12H171.324L165.144 1.69997H166.224L171.024 13.06C171.357 13.8733 171.564 14.4333 171.644 14.74C171.751 14.3133 171.944 13.7666 172.224 13.1Z" fill="white"/>
<path d="M181.499 16V1.69997H182.459V16H181.499Z" fill="white"/>
<path d="M189.15 3.97996L189.19 5.67996V16H188.23V1.57996H188.67L198.09 12.44C198.73 13.2 199.223 13.8066 199.57 14.26C199.516 13.62 199.49 12.8866 199.49 12.06V1.69996H200.45V16.12H200.01L190.41 5.05996C189.743 4.29996 189.316 3.79329 189.13 3.53996L189.15 3.97996Z" fill="white"/>
<path d="M212.37 2.33996C210.623 2.33996 209.196 2.96663 208.09 4.21996C206.983 5.47329 206.43 7.0133 206.43 8.83996C206.43 10.6533 207.056 12.1933 208.31 13.46C209.563 14.7266 211.09 15.36 212.89 15.36C214.436 15.36 215.723 15.1466 216.75 14.72V8.83996H217.71V15.16C216.55 15.88 214.923 16.24 212.83 16.24C210.75 16.24 208.99 15.5266 207.55 14.1C206.11 12.66 205.39 10.9066 205.39 8.83996C205.39 6.75996 206.043 5.0133 207.35 3.59996C208.656 2.17329 210.33 1.45996 212.37 1.45996C213.97 1.45996 215.59 1.72663 217.23 2.25996L216.97 3.05996C215.37 2.57996 213.836 2.33996 212.37 2.33996Z" fill="white"/>
<path fill-rule="evenodd" clip-rule="evenodd" d="M47.1967 3.08786C48.6778 1.50307 50.5591 0.709961 52.7846 0.709961C55.0096 0.709961 56.8906 1.5027 58.3716 3.08674C59.8451 4.64942 60.5746 6.58411 60.5746 8.83996C60.5746 11.0965 59.8448 13.0369 58.3726 14.6121C56.8915 16.1969 55.0102 16.99 52.7846 16.99C50.5591 16.99 48.6778 16.1969 47.1967 14.6121L47.1941 14.6093C45.7364 13.0337 45.0146 11.0943 45.0146 8.83996C45.0146 6.58562 45.7366 4.65116 47.1967 3.08786ZM64.6365 1.71101C65.5122 1.01769 66.6395 0.709961 67.9409 0.709961C69.2441 0.709961 70.4666 0.971342 71.5985 1.50055L72.2603 1.80996L71.3316 3.94068L70.6477 3.6503C69.7577 3.27232 68.8904 3.08996 68.0409 3.08996C67.1381 3.08996 66.5972 3.26081 66.2969 3.48292C66.039 3.67373 65.8709 3.96687 65.8709 4.49996C65.8709 4.93389 66.018 5.35715 66.3624 5.7863C66.7516 6.25729 67.2283 6.68821 67.7986 7.07699C68.4298 7.49344 69.0609 7.92316 69.6919 8.36615C70.3865 8.85387 70.9805 9.43997 71.4703 10.1228C71.997 10.857 72.2709 11.6752 72.2709 12.56C72.2709 13.9584 71.7909 15.1187 70.7587 15.9141L70.7525 15.9188C69.7649 16.6635 68.4583 16.99 66.9209 16.99C65.3594 16.99 63.98 16.5861 62.8212 15.7476L62.2365 15.3244L63.5289 13.3859L64.1509 13.7919C64.9889 14.339 65.8998 14.61 66.9009 14.61C67.9603 14.61 68.6567 14.3989 69.091 14.0799C69.4902 13.7743 69.7109 13.3434 69.7109 12.68C69.7109 12.2802 69.5693 11.8778 69.2224 11.4572L69.2166 11.4503C68.8265 10.9656 68.3492 10.5283 67.7788 10.1399L67.7699 10.1338C67.1403 9.69179 66.5108 9.24301 65.8813 8.78763C65.1878 8.28598 64.5954 7.68646 64.1071 6.99093C63.5844 6.2465 63.3109 5.42424 63.3109 4.53996C63.3109 3.3827 63.7483 2.41132 64.6365 1.71101ZM206.798 3.09211C208.255 1.50191 210.133 0.709961 212.37 0.709961C214.054 0.709961 215.753 0.99093 217.462 1.54673L218.175 1.77863L217.456 3.98899L216.754 3.77833C215.215 3.31645 213.754 3.08996 212.37 3.08996C210.827 3.08996 209.609 3.63229 208.652 4.71638C207.678 5.81955 207.18 7.17785 207.18 8.83996C207.18 10.4597 207.731 11.8089 208.843 12.9324C209.954 14.0551 211.288 14.61 212.89 14.61C214.133 14.61 215.164 14.4656 216 14.1968V8.08996H218.46V15.5772L218.105 15.7972C216.779 16.6203 214.994 16.99 212.83 16.99C210.558 16.99 208.606 16.2026 207.022 14.6328L207.019 14.6303C205.436 13.0473 204.64 11.1022 204.64 8.83996C204.64 6.58844 205.353 4.65553 206.798 3.09211ZM27.6588 0.829962H29.3542L33.9062 11.6487L38.9794 0.829962H40.6412L43.048 16.75H40.5261L39.0358 6.37553L34.5334 16.01H33.9707L33.894 16.2913L33.8087 16.01H33.0144L29.107 6.54993L27.5609 16.75H25.0533L27.6588 0.829962ZM28.8413 3.47884L28.7722 3.31444L28.7436 3.48866L28.8413 3.47884ZM187.48 0.829962H189.012L198.663 11.9568C198.689 11.9873 198.714 12.0176 198.74 12.0476V0.949961H201.2V16.87H199.668L189.939 5.66232L189.94 5.67114V16.75H187.48V0.829962ZM6.84044 0.849962H8.39852L15.0677 16.75H12.3592L10.2992 11.79H4.90042L2.84042 16.75H0.193359L6.84044 0.849962ZM7.59572 5.27643L5.86155 9.46996H9.33644L7.59572 5.27643ZM76.1264 1.03342C77.2554 0.924606 78.3528 0.869961 79.4184 0.869961C80.9314 0.869961 82.229 1.22346 83.2367 2.00627C84.3162 2.83401 84.8084 4.06683 84.8084 5.55996C84.8084 7.13199 84.0922 8.42614 82.7628 9.4041L82.7616 9.40499C81.4704 10.3508 79.9369 10.81 78.1984 10.81H77.9084V16.75H75.4484V1.09878L76.1264 1.03342ZM77.9084 8.64996V3.26724C78.4084 3.24228 78.8582 3.22996 79.2584 3.22996C80.2997 3.22996 81.0385 3.46006 81.5503 3.84137L81.558 3.84703C81.9822 4.15481 82.2684 4.69288 82.2684 5.65996C82.2684 6.50224 81.9175 7.18333 81.1233 7.7491C80.2902 8.34249 79.2995 8.64996 78.1184 8.64996H77.9084ZM118.744 10.9197V16.75H116.284V1.06319L116.979 1.01199C118.256 0.917888 119.336 0.869961 120.214 0.869961C121.708 0.869961 123.003 1.26022 124.041 2.09303C125.127 2.94991 125.644 4.16847 125.644 5.63996C125.644 6.66321 125.342 7.61558 124.755 8.48109C124.365 9.05524 123.936 9.55613 123.464 9.97753C123.865 10.5208 124.326 11.1353 124.848 11.8214C125.575 12.747 126.03 13.3099 126.228 13.5341C126.938 14.2873 127.699 14.6789 128.521 14.775L129.205 14.855L129.141 16.922L128.402 16.9099C127.53 16.8956 126.76 16.7673 126.128 16.4846L126.121 16.4813L126.113 16.4778C125.512 16.1928 124.954 15.7748 124.437 15.2428L124.429 15.235C123.955 14.7335 122.858 13.2969 121.172 10.9888C120.312 10.9836 119.503 10.9606 118.744 10.9197ZM12.9281 0.949961H25.0681V3.28996H20.2281V16.75H17.7681V3.28996H12.9281V0.949961ZM87.5695 0.949961H90.0295V7.22996H98.3495V0.949961H100.809V16.75H98.3495V9.58996H90.0295V16.75H87.5695V0.949961ZM105.081 0.949961H113.221V3.28996H107.541V7.04996H112.681V9.36996H107.541V14.41H113.441V16.75H105.081V0.949961ZM129.948 0.949961H138.088V3.28996H132.408V7.04996H137.548V9.36996H132.408V14.41H138.308V16.75H129.948V0.949961ZM148.859 0.949961H151.319V14.37H157.899V16.75H148.859V0.949961ZM159.984 0.949961H162.444V16.75H159.984V0.949961ZM164.007 0.949961H166.721L171.632 12.5726L176.526 0.949961H179.18L172.379 16.87H170.829L164.007 0.949961ZM180.749 0.949961H183.209V16.75H180.749V0.949961ZM52.7846 3.08996C51.2116 3.08996 49.9817 3.63503 49.0268 4.71638L49.0242 4.71935C48.0536 5.80684 47.5546 7.1629 47.5546 8.83996C47.5546 10.516 48.0532 11.8799 49.0253 12.9818C49.9953 14.0665 51.2275 14.61 52.7846 14.61C54.3577 14.61 55.5876 14.0649 56.5424 12.9835L56.5454 12.9802C57.5305 11.8778 58.0346 10.5145 58.0346 8.83996C58.0346 7.16538 57.5306 5.81046 56.5481 4.72268L56.5424 4.71641C55.5876 3.63506 54.3577 3.08996 52.7846 3.08996ZM118.744 3.26724C119.244 3.24228 119.694 3.22996 120.094 3.22996C121.112 3.22996 121.84 3.46865 122.351 3.8701L122.358 3.8751L122.364 3.87996C122.833 4.2312 123.104 4.76017 123.104 5.59996C123.104 6.43203 122.837 7.15194 122.286 7.79026C121.662 8.51446 121.226 8.68996 120.974 8.68996C120.276 8.68996 119.533 8.67038 118.744 8.63102V3.26724Z" fill="white"/>
</g>
<defs>
<clipPath id="clip0_118_409">
<rect width="219" height="17" fill="white"/>
</clipPath>
</defs>
</svg>
