<svg width="33" height="32" viewBox="0 0 33 32" fill="none" xmlns="http://www.w3.org/2000/svg">
<g clip-path="url(#clip0_0_3)">
<path d="M20.1043 1.20206C19.4283 0.976657 18.6397 0.86406 17.8511 0.86406C22.2449 2.44126 25.3994 5.37046 27.2019 9.76426C29.0045 14.0454 29.1172 18.3265 27.5399 22.833C26.9766 24.5229 26.0753 26.1001 25.0614 27.5647C26.6386 26.2128 27.7653 24.4102 28.5539 22.157C29.2298 20.1291 29.5678 18.3265 29.5678 16.7493C29.5678 14.3834 29.1172 12.0175 28.1032 9.53896C27.0893 7.17306 25.6247 5.14516 23.9348 3.68056C22.4702 2.44126 21.2309 1.65266 20.1043 1.20206ZM11.3168 29.8179L11.0914 29.5926C7.71162 27.3394 5.45842 24.4102 4.33182 20.8051C3.20522 17.1999 3.31782 13.4821 4.66982 9.65156C5.12042 8.29966 5.68372 7.17306 6.35972 6.04646C5.45842 7.17306 4.89512 7.84906 4.66982 8.07436C4.21912 8.63766 3.88112 9.53896 3.54312 10.5529C2.30392 14.0454 2.30392 17.7632 3.65582 21.7064C5.12042 25.9875 7.48632 28.5787 10.8661 29.7053L11.3168 29.8179ZM31.3704 20.6924C29.9058 24.9735 27.0893 28.128 23.1462 30.0433C19.203 31.9585 15.0346 32.1838 10.7535 30.7192C6.58502 29.2546 3.54312 26.6634 1.62792 23.0583C-0.28728 19.4531 -0.512578 15.51 0.951922 11.2289C2.07862 7.84906 4.33182 5.37046 7.48632 3.68056C10.6408 1.99066 13.908 1.76536 17.2878 2.89196C18.9777 3.45526 20.3296 4.35656 21.5689 5.59576C22.9208 6.83506 23.7095 8.29966 23.9348 9.98956C23.9348 10.1023 23.9348 10.2149 23.9348 10.3276C23.8221 10.5529 23.7095 10.6656 23.4841 10.6656C23.2588 10.5529 23.1462 10.4403 23.0335 10.2149C22.9208 9.98956 22.9208 9.76426 22.9208 9.53896C22.5829 8.52496 21.6816 7.39836 20.3296 6.15906C19.0904 5.03246 17.8511 4.35656 16.7245 3.90586C14.0206 2.89196 11.6547 3.11726 9.62682 4.35656C7.82432 5.48316 6.35972 7.51106 5.34572 10.2149C3.99382 13.9328 4.21912 17.9885 5.90902 22.157C7.59892 26.5508 10.4155 29.3673 14.1333 30.7192C14.9219 30.9446 15.9359 31.0572 17.1751 30.9446C18.3017 30.9446 19.3157 30.7192 20.217 30.4939C21.6816 30.0433 22.9208 29.0293 24.2728 27.3394C25.2867 25.9875 26.188 24.5229 26.7513 22.833C27.3146 21.3684 27.5399 19.7911 27.6526 18.3265C28.1032 11.4542 25.7374 6.27176 20.4423 2.89196C19.541 2.32866 18.7524 1.87796 18.0764 1.65266C15.1472 0.638757 12.556 0.864059 10.3028 2.32866C10.1901 2.32866 10.0775 2.44126 9.96482 2.55396C9.85222 2.55396 9.62682 2.44126 9.40152 2.10336C9.62682 1.65266 10.0775 1.42736 10.5281 1.20206C11.0914 0.976657 11.5421 0.86406 12.1054 0.63876C15.0346 -0.26254 18.1891 -0.262542 21.4562 0.976658C25.6247 2.44126 28.6665 5.03246 30.5818 8.86296C32.6097 12.5808 32.835 16.524 31.3704 20.6924Z" fill="white"/>
<path d="M13.1191 24.1851C13.4571 24.2977 13.7951 24.4104 14.1331 24.523C12.2178 23.5091 10.8659 22.0445 10.1899 19.7913C9.62656 17.6507 9.73926 15.6228 10.7532 13.7076C11.0912 12.919 11.5419 12.243 12.2178 11.6797C11.4292 12.243 10.7532 13.0316 10.3026 14.0456C9.85186 14.9469 9.62657 15.7355 9.51397 16.5241C9.40127 17.6507 9.51396 18.7773 9.85186 19.9039C10.1899 21.1432 10.7532 22.0445 11.5419 22.8331C11.9925 23.3964 12.5558 23.8471 13.1191 24.1851ZM18.7522 11.2291L18.8648 11.3417C20.3294 12.581 21.2307 14.0456 21.5687 15.8482C21.9067 17.5381 21.6813 19.3406 20.78 21.0306C20.4421 21.5939 20.1041 22.1572 19.7661 22.6078C20.2167 22.1572 20.5547 21.8192 20.6674 21.7065C20.8927 21.4812 21.118 21.1432 21.3434 20.5799C22.132 19.0027 22.3573 17.3127 21.9067 15.3975C21.456 13.3696 20.4421 11.905 18.9775 11.2291H18.7522ZM8.83796 14.3836C9.73926 12.4683 11.2039 11.1164 13.2318 10.4404C15.147 9.76447 17.1749 9.87707 19.0901 10.7784C21.0054 11.6797 22.2446 13.0316 22.9206 14.8342C23.5966 16.6368 23.4839 18.552 22.5826 20.3546C21.794 21.8192 20.6674 22.9458 19.0901 23.5091C17.5129 24.0724 15.9356 24.0724 14.471 23.2838C13.6824 22.9458 13.1191 22.3825 12.6685 21.8192C12.1052 21.1432 11.8798 20.4672 11.7672 19.6786V19.566C11.8798 19.4533 11.8798 19.4533 11.9925 19.4533C12.1052 19.4533 12.1052 19.566 12.2178 19.6786C12.2178 19.7913 12.2178 19.9039 12.2178 20.0166C12.3305 20.5799 12.6685 21.1432 13.2318 21.7065C13.7951 22.2698 14.2457 22.7205 14.809 22.9458C16.0483 23.5091 17.1749 23.6218 18.1888 23.1711C19.0901 22.7205 19.8788 21.9318 20.4421 20.6926C21.2307 19.0027 21.456 17.0874 20.8927 15.0595C20.3294 12.919 19.2028 11.4544 17.5129 10.5531C17.1749 10.4404 16.7243 10.3278 16.0483 10.2151C15.485 10.2151 15.0343 10.2151 14.5837 10.2151C13.9077 10.3278 13.2318 10.7784 12.5558 11.4544C11.9925 12.0177 11.5419 12.6936 11.2039 13.4823C10.8659 14.1582 10.6406 14.8342 10.5279 15.5102C9.96456 18.6647 10.7532 21.2559 13.0064 23.1711C13.4571 23.5091 13.7951 23.7344 14.0204 23.8471C15.3723 24.523 16.4989 24.523 17.6255 23.9597C17.6255 23.9597 17.7382 23.9597 17.7382 23.8471C17.8509 23.8471 17.8509 23.9597 17.9635 24.0724C17.8509 24.2977 17.6255 24.4104 17.4002 24.4104C17.1749 24.523 16.8369 24.523 16.6116 24.523C15.147 24.861 13.6824 24.6357 12.2178 23.8471C10.3026 22.9458 9.06326 21.4812 8.38726 19.6786C7.82396 18.1014 7.93666 16.2988 8.83796 14.3836Z" fill="white"/>
</g>
<defs>
<clipPath id="clip0_0_3">
<rect width="33" height="32" fill="white"/>
</clipPath>
</defs>
</svg>
